<svg width="8" height="8" viewBox="0 0 8 8" fill="none" xmlns="http://www.w3.org/2000/svg">
<path d="M8 4C8 5.933 6.209 7.5 4 7.5C3.60383 7.50053 3.20929 7.4491 2.8265 7.347C2.5345 7.495 1.864 7.779 0.736 7.964C0.636 7.98 0.56 7.876 0.5995 7.783C0.7765 7.365 0.9365 6.808 0.9845 6.3C0.372 5.685 0 4.88 0 4C0 2.067 1.791 0.5 4 0.5C6.209 0.5 8 2.067 8 4ZM2.5 4C2.5 3.86739 2.44732 3.74021 2.35355 3.64645C2.25979 3.55268 2.13261 3.5 2 3.5C1.86739 3.5 1.74021 3.55268 1.64645 3.64645C1.55268 3.74021 1.5 3.86739 1.5 4C1.5 4.13261 1.55268 4.25979 1.64645 4.35355C1.74021 4.44732 1.86739 4.5 2 4.5C2.13261 4.5 2.25979 4.44732 2.35355 4.35355C2.44732 4.25979 2.5 4.13261 2.5 4V4ZM4.5 4C4.5 3.86739 4.44732 3.74021 4.35355 3.64645C4.25979 3.55268 4.13261 3.5 4 3.5C3.86739 3.5 3.74021 3.55268 3.64645 3.64645C3.55268 3.74021 3.5 3.86739 3.5 4C3.5 4.13261 3.55268 4.25979 3.64645 4.35355C3.74021 4.44732 3.86739 4.5 4 4.5C4.13261 4.5 4.25979 4.44732 4.35355 4.35355C4.44732 4.25979 4.5 4.13261 4.5 4V4ZM6 4.5C6.13261 4.5 6.25979 4.44732 6.35355 4.35355C6.44732 4.25979 6.5 4.13261 6.5 4C6.5 3.86739 6.44732 3.74021 6.35355 3.64645C6.25979 3.55268 6.13261 3.5 6 3.5C5.86739 3.5 5.74021 3.55268 5.64645 3.64645C5.55268 3.74021 5.5 3.86739 5.5 4C5.5 4.13261 5.55268 4.25979 5.64645 4.35355C5.74021 4.44732 5.86739 4.5 6 4.5V4.5Z" fill="white"/>
</svg>
