<svg width="12" height="12" viewBox="0 0 12 12" fill="none" xmlns="http://www.w3.org/2000/svg">
<path fill-rule="evenodd" clip-rule="evenodd" d="M7.19995 10.8C7.19995 11.4627 6.6627 12 5.99995 12C5.33721 12 4.79995 11.4627 4.79995 10.8V7.19982H1.2C0.537258 7.19982 0 6.66256 0 5.99982C0 5.33708 0.537258 4.79982 1.2 4.79982H4.79995V1.2C4.79995 0.537257 5.33721 -9.53674e-07 5.99995 -9.53674e-07C6.6627 -9.53674e-07 7.19995 0.537257 7.19995 1.2V4.79982H10.8C11.4627 4.79982 12 5.33708 12 5.99982C12 6.66256 11.4627 7.19982 10.8 7.19982H7.19995V10.8Z" fill="white"/>
</svg>
