<svg width="8" height="8" viewBox="0 0 8 8" fill="none" xmlns="http://www.w3.org/2000/svg">
<path fill-rule="evenodd" clip-rule="evenodd" d="M2.36372 0.727273C2.21906 0.727273 2.08032 0.78474 1.97803 0.887033C1.87574 0.989325 1.81827 1.12806 1.81827 1.27273C1.81827 1.41739 1.87574 1.55613 1.97803 1.65842C2.07867 1.75906 2.21459 1.81632 2.35673 1.81814H3.51062C3.46624 1.70201 3.41005 1.57432 3.34056 1.44797C3.11184 1.03213 2.79787 0.727273 2.36372 0.727273ZM1.091 1.27273C1.091 1.4632 1.13369 1.64927 1.21378 1.81814H0.363636C0.162806 1.81814 0 1.98094 0 2.18177V3.99996C0 4.20079 0.162806 4.36359 0.363636 4.36359H0.727273V7.63645C0.727273 7.83728 0.890078 8.00009 1.09091 8.00009H6.90909C7.10992 8.00009 7.27273 7.83728 7.27273 7.63645V4.36359H7.63636C7.83719 4.36359 8 4.20079 8 3.99996V2.18177C8 1.98094 7.83719 1.81814 7.63636 1.81814H6.78622C6.86631 1.64927 6.90901 1.4632 6.90901 1.27273C6.90901 0.935179 6.77491 0.611456 6.53623 0.372773C6.29755 0.134091 5.97383 0 5.63628 0C4.7977 0 4.29348 0.604239 4.0222 1.09748C4.01467 1.11118 4.00727 1.12487 4 1.13853C3.99274 1.12487 3.98534 1.11118 3.9778 1.09748C3.70652 0.604239 3.20231 0 2.36372 0C2.02618 0 1.70245 0.134091 1.46377 0.372773C1.22509 0.611456 1.091 0.935179 1.091 1.27273ZM5.64328 1.81814H4.48938C4.53377 1.70201 4.58996 1.57432 4.65945 1.44797C4.88816 1.03213 5.20213 0.727273 5.63628 0.727273C5.78094 0.727273 5.91968 0.78474 6.02197 0.887033C6.12427 0.989325 6.18173 1.12806 6.18173 1.27273C6.18173 1.41739 6.12427 1.55613 6.02197 1.65842C5.92133 1.75906 5.78541 1.81632 5.64328 1.81814ZM4.36355 2.54545V3.63632H7.27273V2.54541H5.64697C5.64341 2.54544 5.63984 2.54545 5.63628 2.54545H4.36355ZM0.727273 2.54541H2.35304L2.36372 2.54545H3.63627V3.63632H0.727273V2.54541ZM3.63627 4.36359H1.45455V7.27282H3.63627V4.36359ZM4.36355 7.27282V4.36359H6.54545V7.27282H4.36355Z" fill="white"/>
</svg>
