<svg width="33" height="33" viewBox="0 0 33 33" fill="none" xmlns="http://www.w3.org/2000/svg">
<path d="M9.8615 3.7908L14.3192 8.24993H18.6794L23.1385 3.79218C23.3965 3.53417 23.7464 3.38922 24.1113 3.38922C24.4762 3.38922 24.8261 3.53417 25.0841 3.79218C25.3421 4.05018 25.4871 4.40011 25.4871 4.76499C25.4871 5.12986 25.3421 5.4798 25.0841 5.7378L22.5692 8.24993H25.4375C26.7139 8.24993 27.9379 8.75696 28.8405 9.65948C29.743 10.562 30.25 11.7861 30.25 13.0624V24.0624C30.25 25.3388 29.743 26.5629 28.8405 27.4654C27.9379 28.3679 26.7139 28.8749 25.4375 28.8749H7.5625C6.28615 28.8749 5.06207 28.3679 4.15955 27.4654C3.25703 26.5629 2.75 25.3388 2.75 24.0624V13.0624C2.75 11.7861 3.25703 10.562 4.15955 9.65948C5.06207 8.75696 6.28615 8.24993 7.5625 8.24993H10.4294L7.91587 5.73505C7.65787 5.47705 7.51292 5.12711 7.51292 4.76224C7.51292 4.39736 7.65787 4.04743 7.91587 3.78943C8.17388 3.53142 8.52381 3.38647 8.88869 3.38647C9.25356 3.38647 9.60349 3.53142 9.8615 3.78943V3.7908ZM25.4375 10.9999H7.5625C7.04979 11 6.55546 11.1909 6.17592 11.5357C5.79639 11.8804 5.55885 12.3541 5.50962 12.8644L5.5 13.0624V24.0624C5.50002 24.5751 5.69101 25.0695 6.03573 25.449C6.38044 25.8285 6.85415 26.0661 7.3645 26.1153L7.5625 26.1249H25.4375C25.9502 26.1249 26.4445 25.9339 26.8241 25.5892C27.2036 25.2445 27.4412 24.7708 27.4904 24.2604L27.5 24.0624V13.0624C27.5 12.5154 27.2827 11.9908 26.8959 11.604C26.5091 11.2172 25.9845 10.9999 25.4375 10.9999V10.9999ZM11 15.1249C11.3647 15.1249 11.7144 15.2698 11.9723 15.5277C12.2301 15.7855 12.375 16.1353 12.375 16.4999V19.2499C12.375 19.6146 12.2301 19.9643 11.9723 20.2222C11.7144 20.4801 11.3647 20.6249 11 20.6249C10.6353 20.6249 10.2856 20.4801 10.0277 20.2222C9.76987 19.9643 9.625 19.6146 9.625 19.2499V16.4999C9.625 16.1353 9.76987 15.7855 10.0277 15.5277C10.2856 15.2698 10.6353 15.1249 11 15.1249ZM22 15.1249C22.3647 15.1249 22.7144 15.2698 22.9723 15.5277C23.2301 15.7855 23.375 16.1353 23.375 16.4999V19.2499C23.375 19.6146 23.2301 19.9643 22.9723 20.2222C22.7144 20.4801 22.3647 20.6249 22 20.6249C21.6353 20.6249 21.2856 20.4801 21.0277 20.2222C20.7699 19.9643 20.625 19.6146 20.625 19.2499V16.4999C20.625 16.1353 20.7699 15.7855 21.0277 15.5277C21.2856 15.2698 21.6353 15.1249 22 15.1249V15.1249Z" fill="#CCCCCC"/>
</svg>
