<svg width="22" height="22" viewBox="0 0 22 22" fill="none" xmlns="http://www.w3.org/2000/svg">
<path d="M5.82011 20.7064L1.24151e-05 22L1.29361 16.1799C0.441697 14.5864 -0.00270803 12.8069 1.24151e-05 11C1.24151e-05 4.9247 4.92471 0 11 0C17.0753 0 22 4.9247 22 11C22 17.0753 17.0753 22 11 22C9.1931 22.0027 7.41359 21.5583 5.82011 20.7064ZM6.13911 18.3821L6.85741 18.7671C8.13181 19.4481 9.55504 19.803 11 19.8C12.7405 19.8 14.4419 19.2839 15.889 18.3169C17.3362 17.35 18.4641 15.9756 19.1301 14.3676C19.7962 12.7596 19.9705 10.9902 19.6309 9.2832C19.2914 7.57617 18.4532 6.00816 17.2225 4.77746C15.9918 3.54676 14.4238 2.70864 12.7168 2.36909C11.0098 2.02954 9.24038 2.20381 7.63239 2.86986C6.02441 3.53591 4.65003 4.66383 3.68308 6.11098C2.71612 7.55813 2.20001 9.25952 2.20001 11C2.20001 12.4674 2.55751 13.8798 3.23401 15.1426L3.61791 15.8609L2.89741 19.1026L6.13911 18.3821Z" fill="white"/>
<path d="M10.3721 12.9443C10.3721 12.3063 10.4495 11.7982 10.6045 11.4199C10.7594 11.0417 11.042 10.6702 11.4521 10.3057C11.8669 9.93652 12.1426 9.63802 12.2793 9.41016C12.416 9.17773 12.4844 8.93392 12.4844 8.67871C12.4844 7.90853 12.1289 7.52344 11.418 7.52344C11.0807 7.52344 10.8096 7.62826 10.6045 7.83789C10.404 8.04297 10.2992 8.3278 10.29 8.69238H8.30762C8.31673 7.82194 8.59701 7.14062 9.14844 6.64844C9.70443 6.15625 10.4609 5.91016 11.418 5.91016C12.3841 5.91016 13.1338 6.14486 13.667 6.61426C14.2002 7.0791 14.4668 7.73763 14.4668 8.58984C14.4668 8.97721 14.3802 9.34408 14.207 9.69043C14.0339 10.0322 13.7308 10.4128 13.2979 10.832L12.7441 11.3584C12.3978 11.6911 12.1995 12.0807 12.1494 12.5273L12.1221 12.9443H10.3721ZM10.1738 15.043C10.1738 14.7376 10.2764 14.487 10.4814 14.291C10.6911 14.0905 10.9577 13.9902 11.2812 13.9902C11.6048 13.9902 11.8691 14.0905 12.0742 14.291C12.2839 14.487 12.3887 14.7376 12.3887 15.043C12.3887 15.3438 12.2861 15.5921 12.0811 15.7881C11.8805 15.984 11.6139 16.082 11.2812 16.082C10.9486 16.082 10.6797 15.984 10.4746 15.7881C10.2741 15.5921 10.1738 15.3438 10.1738 15.043Z" fill="white"/>
</svg>
