<svg width="16" height="17" viewBox="0 0 16 17" fill="none" xmlns="http://www.w3.org/2000/svg">
<g clip-path="url(#clip0_6_12)">
<path d="M14.6665 12.1628V14.1628C14.6672 14.3485 14.6292 14.5322 14.5548 14.7024C14.4804 14.8725 14.3713 15.0252 14.2345 15.1507C14.0977 15.2762 13.9362 15.3718 13.7603 15.4313C13.5844 15.4907 13.398 15.5128 13.2131 15.4961C11.1617 15.2732 9.19113 14.5722 7.45979 13.4495C5.84901 12.4259 4.48335 11.0602 3.45979 9.44946C2.33311 7.71027 1.63195 5.73013 1.41313 3.66946C1.39647 3.48511 1.41838 3.2993 1.47746 3.12388C1.53654 2.94845 1.63151 2.78726 1.7563 2.65054C1.8811 2.51383 2.033 2.4046 2.20232 2.32981C2.37164 2.25502 2.55469 2.2163 2.73979 2.21613H4.73979C5.06333 2.21294 5.37699 2.32751 5.6223 2.53848C5.86761 2.74945 6.02784 3.04243 6.07313 3.3628C6.15754 4.00284 6.31409 4.63128 6.53979 5.23613C6.62949 5.47474 6.6489 5.73407 6.59573 5.98338C6.54256 6.23269 6.41903 6.46154 6.23979 6.6428L5.39313 7.48946C6.34216 9.15849 7.7241 10.5404 9.39313 11.4895L10.2398 10.6428C10.4211 10.4636 10.6499 10.34 10.8992 10.2869C11.1485 10.2337 11.4078 10.2531 11.6465 10.3428C12.2513 10.5685 12.8797 10.725 13.5198 10.8095C13.8436 10.8551 14.1394 11.0183 14.3508 11.2678C14.5622 11.5173 14.6746 11.8358 14.6665 12.1628Z" stroke="#333333" stroke-width="1.46211" stroke-linecap="round" stroke-linejoin="round"/>
</g>
<defs>
<clipPath id="clip0_6_12">
<rect width="16" height="16" fill="white" transform="translate(0 0.882812)"/>
</clipPath>
</defs>
</svg>
