<svg width="16" height="16" viewBox="0 0 16 16" fill="none" xmlns="http://www.w3.org/2000/svg">
<path d="M5.99967 2H9.99967L11.333 3.33333H13.9997C14.1765 3.33333 14.3461 3.40357 14.4711 3.5286C14.5961 3.65362 14.6663 3.82319 14.6663 4V13.3333C14.6663 13.5101 14.5961 13.6797 14.4711 13.8047C14.3461 13.9298 14.1765 14 13.9997 14H1.99967C1.82286 14 1.65329 13.9298 1.52827 13.8047C1.40325 13.6797 1.33301 13.5101 1.33301 13.3333V4C1.33301 3.82319 1.40325 3.65362 1.52827 3.5286C1.65329 3.40357 1.82286 3.33333 1.99967 3.33333H4.66634L5.99967 2ZM7.99967 12.6667C9.06054 12.6667 10.078 12.2452 10.8281 11.4951C11.5782 10.7449 11.9997 9.72753 11.9997 8.66667C11.9997 7.6058 11.5782 6.58839 10.8281 5.83824C10.078 5.08809 9.06054 4.66667 7.99967 4.66667C6.93881 4.66667 5.92139 5.08809 5.17125 5.83824C4.4211 6.58839 3.99967 7.6058 3.99967 8.66667C3.99967 9.72753 4.4211 10.7449 5.17125 11.4951C5.92139 12.2452 6.93881 12.6667 7.99967 12.6667V12.6667ZM7.99967 11.3333C7.29243 11.3333 6.61415 11.0524 6.11406 10.5523C5.61396 10.0522 5.33301 9.37391 5.33301 8.66667C5.33301 7.95942 5.61396 7.28115 6.11406 6.78105C6.61415 6.28095 7.29243 6 7.99967 6C8.70692 6 9.3852 6.28095 9.88529 6.78105C10.3854 7.28115 10.6663 7.95942 10.6663 8.66667C10.6663 9.37391 10.3854 10.0522 9.88529 10.5523C9.3852 11.0524 8.70692 11.3333 7.99967 11.3333Z" fill="#666666"/>
</svg>
