<svg width="22" height="22" viewBox="0 0 22 22" fill="none" xmlns="http://www.w3.org/2000/svg">
<path d="M5.82011 20.7064L1.24151e-05 22L1.29361 16.1799C0.441697 14.5864 -0.00270803 12.8069 1.24151e-05 11C1.24151e-05 4.9247 4.92471 0 11 0C17.0753 0 22 4.9247 22 11C22 17.0753 17.0753 22 11 22C9.1931 22.0027 7.41359 21.5583 5.82011 20.7064V20.7064ZM6.13911 18.3821L6.85741 18.7671C8.13181 19.4481 9.55504 19.803 11 19.8C12.7405 19.8 14.4419 19.2839 15.889 18.3169C17.3362 17.35 18.4641 15.9756 19.1301 14.3676C19.7962 12.7596 19.9705 10.9902 19.6309 9.2832C19.2914 7.57617 18.4532 6.00816 17.2225 4.77746C15.9918 3.54676 14.4238 2.70864 12.7168 2.36909C11.0098 2.02954 9.24038 2.20381 7.63239 2.86986C6.02441 3.53591 4.65003 4.66383 3.68308 6.11098C2.71612 7.55813 2.20001 9.25952 2.20001 11C2.20001 12.4674 2.55751 13.8798 3.23401 15.1426L3.61791 15.8609L2.89741 19.1026L6.13911 18.3821V18.3821Z" fill="white"/>
<circle cx="7.5" cy="11.5" r="1.5" fill="white"/>
<circle cx="11.5" cy="11.5" r="1.5" fill="white"/>
<circle cx="15.5" cy="11.5" r="1.5" fill="white"/>
</svg>
