<svg width="19" height="19" viewBox="0 0 19 19" fill="none" xmlns="http://www.w3.org/2000/svg">
<path d="M1.58325 7.12026C1.58284 6.49658 1.70545 5.87896 1.94407 5.30274C2.18269 4.72652 2.53263 4.20303 2.97385 3.76225C3.41508 3.32146 3.93892 2.97205 4.51537 2.734C5.09183 2.49596 5.70958 2.37397 6.33325 2.37501H12.6666C15.2894 2.37501 17.4166 4.50855 17.4166 7.12026V16.625H6.33325C3.71046 16.625 1.58325 14.4915 1.58325 11.8798V7.12026ZM15.8333 15.0417V7.12026C15.8312 6.28149 15.4967 5.47774 14.9032 4.88508C14.3096 4.29242 13.5054 3.95918 12.6666 3.95834H6.33325C5.91751 3.9573 5.50565 4.03834 5.12129 4.19681C4.73693 4.35528 4.38764 4.58807 4.09344 4.88183C3.79924 5.17559 3.56593 5.52453 3.40688 5.90865C3.24783 6.29277 3.16617 6.70451 3.16659 7.12026V11.8798C3.16868 12.7185 3.50313 13.5223 4.09668 14.1149C4.69023 14.7076 5.49448 15.0408 6.33325 15.0417H15.8333ZM11.0833 8.70834H12.6666V10.2917H11.0833V8.70834ZM6.33325 8.70834H7.91659V10.2917H6.33325V8.70834Z" fill="#CCCCCC"/>
</svg>
