<svg width="16" height="20" viewBox="0 0 16 20" fill="none" xmlns="http://www.w3.org/2000/svg">
<g clip-path="url(#clip0_442_132)">
<path d="M10.3333 5.5496C11.0429 6.04097 11.6322 6.74797 12.0418 7.59944C12.4514 8.45092 12.6669 9.41684 12.6666 10.4V16.8H9.88659C9.74885 17.2684 9.49343 17.6741 9.15552 17.961C8.81761 18.2479 8.41386 18.402 7.99992 18.402C7.58598 18.402 7.18223 18.2479 6.84432 17.961C6.50641 17.6741 6.25099 17.2684 6.11325 16.8H3.33325V10.4C3.33295 9.41684 3.54845 8.45092 3.95806 7.59944C4.36767 6.74797 4.95695 6.04097 5.66659 5.5496C5.55704 5.3135 5.47303 5.0616 5.41659 4.8H3.33325V3.19999H5.41725C5.56554 2.5134 5.89963 1.90534 6.36708 1.47125C6.83452 1.03716 7.40885 0.801636 7.99992 0.801636C8.59098 0.801636 9.16532 1.03716 9.63276 1.47125C10.1002 1.90534 10.4343 2.5134 10.5826 3.19999H12.6666V4.8H10.5826C10.5259 5.064 10.4413 5.316 10.3339 5.5496H10.3333ZM9.36459 6.7496C8.96525 7.036 8.49859 7.2 7.99992 7.2C7.51944 7.20087 7.04778 7.0452 6.63525 6.7496C6.04875 7.06552 5.55087 7.57819 5.20159 8.22585C4.85231 8.87352 4.66651 9.62855 4.66659 10.4V15.2H5.99992V12C5.99992 11.3635 6.21063 10.753 6.58571 10.3029C6.96078 9.85286 7.46949 9.6 7.99992 9.6C8.53035 9.6 9.03906 9.85286 9.41413 10.3029C9.78921 10.753 9.99992 11.3635 9.99992 12V15.2H11.3333V10.4C11.3333 9.62855 11.1475 8.87352 10.7982 8.22585C10.449 7.57819 9.95109 7.06552 9.36459 6.7496ZM7.99992 11.2C7.82311 11.2 7.65354 11.2843 7.52851 11.4343C7.40349 11.5843 7.33325 11.7878 7.33325 12V16C7.33325 16.2122 7.40349 16.4157 7.52851 16.5657C7.65354 16.7157 7.82311 16.8 7.99992 16.8C8.17673 16.8 8.3463 16.7157 8.47132 16.5657C8.59635 16.4157 8.66659 16.2122 8.66659 16V12C8.66659 11.7878 8.59635 11.5843 8.47132 11.4343C8.3463 11.2843 8.17673 11.2 7.99992 11.2ZM7.99992 5.6C8.35354 5.6 8.69268 5.43143 8.94273 5.13137C9.19278 4.83131 9.33325 4.42434 9.33325 4C9.33325 3.57565 9.19278 3.16868 8.94273 2.86862C8.69268 2.56856 8.35354 2.39999 7.99992 2.39999C7.6463 2.39999 7.30716 2.56856 7.05711 2.86862C6.80706 3.16868 6.66659 3.57565 6.66659 4C6.66659 4.42434 6.80706 4.83131 7.05711 5.13137C7.30716 5.43143 7.6463 5.6 7.99992 5.6Z" fill="#333333"/>
</g>
<defs>
<clipPath id="clip0_442_132">
<rect width="16" height="19.2" fill="white"/>
</clipPath>
</defs>
</svg>
