<svg width="51" height="51" viewBox="0 0 51 51" fill="none" xmlns="http://www.w3.org/2000/svg">
<path d="M51 25.5C51 39.5833 39.5833 51 25.5 51C11.4167 51 0 39.5833 0 25.5C0 11.4167 11.4167 0 25.5 0C39.5833 0 51 11.4167 51 25.5Z" fill="#0071F5"/>
<path d="M48 25.5C48 37.9264 37.9264 48 25.5 48C13.0736 48 3 37.9264 3 25.5C3 13.0736 13.0736 3 25.5 3C37.9264 3 48 13.0736 48 25.5Z" fill="#0071F5"/>
<path fill-rule="evenodd" clip-rule="evenodd" d="M25.5 47C37.3741 47 47 37.3741 47 25.5C47 13.6259 37.3741 4 25.5 4C13.6259 4 4 13.6259 4 25.5C4 37.3741 13.6259 47 25.5 47ZM25.5 48C37.9264 48 48 37.9264 48 25.5C48 13.0736 37.9264 3 25.5 3C13.0736 3 3 13.0736 3 25.5C3 37.9264 13.0736 48 25.5 48Z" fill="white"/>
<path d="M17.6053 22.9779H19.6493V21.4799H17.6053V19.7299H15.8553V21.4799H13.7973V22.9779H15.8553V23.1879C15.8553 25.1759 15.1973 27.2899 13.3633 28.3539L14.3993 29.7399C15.5613 29.0819 16.3173 27.9479 16.7513 26.6039C17.2133 27.8219 17.9553 28.8439 19.1033 29.4459L20.0833 28.0739C18.2633 27.1079 17.6053 25.1339 17.6053 23.1879V22.9779ZM23.0093 19.2959V24.2379H21.9593V19.5059H20.2373V31.6159H21.9593V25.7499H23.0093V32.1899H24.7593V19.2959H23.0093Z" fill="white"/>
<path d="M32.2762 24.9239C31.1002 25.1059 30.0782 25.1759 28.6922 25.1899V24.0979H31.8562V22.6979H28.6922V21.6339H31.9822V20.1779H26.9142V26.6739H27.8102C29.7282 26.6739 30.9742 26.6319 32.4442 26.3939L32.2762 24.9239ZM28.5942 29.2079H35.6222V32.2179H37.4702V27.7379H28.5942V29.2079ZM35.7202 19.3099V22.4739H34.6842V19.5339H32.9622V27.0939H34.6842V23.9439H35.7202V27.1779H37.4702V19.3099H35.7202Z" fill="white"/>
<path d="M20.3997 7.3999L21.1756 8.732L22.6823 9.05826L21.6551 10.2078L21.8104 11.7415L20.3997 11.1199L18.989 11.7415L19.1443 10.2078L18.1172 9.05826L19.6238 8.732L20.3997 7.3999Z" fill="white"/>
<path d="M25.9993 5.80005L26.7752 7.13215L28.2819 7.45841L27.2547 8.60795L27.41 10.1417L25.9993 9.52005L24.5886 10.1417L24.7439 8.60795L23.7168 7.45841L25.2235 7.13215L25.9993 5.80005Z" fill="white"/>
<path d="M31.6009 7.3999L32.3768 8.732L33.8834 9.05826L32.8563 10.2078L33.0116 11.7415L31.6009 11.1199L30.1902 11.7415L30.3455 10.2078L29.3184 9.05826L30.825 8.732L31.6009 7.3999Z" fill="white"/>
<path d="M31.6022 43.8L30.8264 42.468L29.3197 42.1417L30.3468 40.9921L30.1915 39.4584L31.6022 40.08L33.0129 39.4584L32.8576 40.9921L33.8848 42.1417L32.3781 42.468L31.6022 43.8Z" fill="white"/>
<path d="M26.0026 45.3999L25.2267 44.0678L23.7201 43.7415L24.7472 42.592L24.5919 41.0583L26.0026 41.6799L27.4133 41.0583L27.258 42.592L28.2852 43.7415L26.7785 44.0678L26.0026 45.3999Z" fill="white"/>
<path d="M20.4011 43.8L19.6252 42.468L18.1185 42.1417L19.1457 40.9921L18.9904 39.4584L20.4011 40.08L21.8117 39.4584L21.6565 40.9921L22.6836 42.1417L21.1769 42.468L20.4011 43.8Z" fill="white"/>
</svg>
