<svg width="18" height="18" viewBox="0 0 18 18" fill="none" xmlns="http://www.w3.org/2000/svg">
<path d="M14.2498 10.5V12.75H16.4998V14.25H14.249L14.2498 16.5H12.7498L12.749 14.25H10.4998V12.75H12.7498V10.5H14.2498ZM15.182 3.56773C16.8785 5.26873 16.937 7.97773 15.359 9.74398L14.294 8.68048C15.2923 7.53748 15.2398 5.74498 14.12 4.62748C12.9928 3.50323 11.18 3.45524 10.0025 4.51273L9.00128 5.41123L7.99928 4.51348C6.81803 3.45449 5.00603 3.50098 3.87878 4.62898C2.76128 5.74648 2.70503 7.53523 3.73478 8.71723L10.0588 15.0517L8.99978 16.1137L2.63978 9.74473C1.06178 7.97773 1.12103 5.26423 2.81678 3.56773C4.51553 1.86974 7.23278 1.81273 8.99978 3.39673C10.7615 1.81498 13.484 1.86749 15.1813 3.56773H15.182Z" fill="#666666"/>
</svg>
