<svg width="24" height="22" viewBox="0 0 24 22" fill="none" xmlns="http://www.w3.org/2000/svg">
<path d="M12.001 1.81972C14.8197 -0.690314 19.1756 -0.607003 21.8912 2.09108C24.6055 4.79035 24.6991 9.08919 22.1744 11.8932L11.9986 22L1.82517 11.8932C-0.69958 9.08919 -0.604781 4.78321 2.10837 2.09108C4.82632 -0.603433 9.17384 -0.693885 12.001 1.81972ZM20.192 3.77277C18.3921 1.98516 15.4881 1.91256 13.6042 3.59068L12.0022 5.01648L10.399 3.59187C8.50905 1.91137 5.6111 1.98516 3.80634 3.77515C2.01837 5.54848 1.92837 8.387 3.57594 10.2627L11.9998 18.6307L20.4236 10.2639C22.0724 8.387 21.9824 5.55205 20.192 3.77277Z" fill="white"/>
</svg>
