<svg width="18" height="18" viewBox="0 0 18 18" fill="none" xmlns="http://www.w3.org/2000/svg">
<g clip-path="url(#clip0_529_422)">
<path d="M13.2098 11.6371C14.2991 10.1506 14.787 8.30766 14.5759 6.47691C14.3647 4.64615 13.4701 2.96262 12.071 1.76313C10.6719 0.563649 8.8715 -0.0633329 7.02997 0.00762436C5.18845 0.0785817 3.44162 0.842245 2.13896 2.14583C0.836304 3.44942 0.0738903 5.1968 0.00425079 7.03838C-0.0653888 8.87995 0.562881 10.6799 1.76337 12.0782C2.96385 13.4764 4.64802 14.3698 6.47893 14.5796C8.30984 14.7895 10.1525 14.3003 11.6382 13.2099H11.637C11.6708 13.2549 11.7068 13.2976 11.7473 13.3392L16.0785 17.6705C16.2895 17.8816 16.5756 18.0002 16.8741 18.0003C17.1725 18.0004 17.4587 17.882 17.6698 17.6711C17.8809 17.4601 17.9996 17.1739 17.9997 16.8755C17.9998 16.5771 17.8814 16.2908 17.6704 16.0797L13.3392 11.7485C13.2989 11.7078 13.2557 11.6702 13.2098 11.636V11.6371ZM13.5 7.31261C13.5 8.12517 13.34 8.92976 13.029 9.68047C12.7181 10.4312 12.2623 11.1133 11.6878 11.6878C11.1132 12.2624 10.4311 12.7182 9.68039 13.0291C8.92969 13.3401 8.12509 13.5001 7.31253 13.5001C6.49998 13.5001 5.69538 13.3401 4.94468 13.0291C4.19398 12.7182 3.51187 12.2624 2.93731 11.6878C2.36275 11.1133 1.90698 10.4312 1.59603 9.68047C1.28508 8.92976 1.12503 8.12517 1.12503 7.31261C1.12503 5.67159 1.77693 4.09777 2.93731 2.93739C4.09769 1.77701 5.67151 1.12511 7.31253 1.12511C8.95356 1.12511 10.5274 1.77701 11.6878 2.93739C12.8481 4.09777 13.5 5.67159 13.5 7.31261V7.31261Z" fill="#FE354D"/>
</g>
<defs>
<clipPath id="clip0_529_422">
<rect width="18" height="18" fill="white"/>
</clipPath>
</defs>
</svg>
