<svg width="16" height="16" viewBox="0 0 16 16" fill="none" xmlns="http://www.w3.org/2000/svg">
<circle cx="8.00005" cy="7.99993" r="6.4" stroke="#333333" stroke-width="1.6"/>
<path d="M7.23627 8.09116L10.7489 4.79993L11.6872 5.67911L11.0617 6.26523L12 7.14441L10.4361 8.61013L9.4978 7.73095L8.17504 8.97034C8.4186 9.40943 8.48653 9.91567 8.36654 10.3976C8.24655 10.8795 7.94656 11.3053 7.52077 11.5981C7.09499 11.8909 6.57148 12.0313 6.04483 11.994C5.51819 11.9568 5.02314 11.7442 4.64913 11.3948C4.27493 11.0448 4.04695 10.5807 4.00649 10.0867C3.96603 9.59272 4.11577 9.10148 4.42859 8.70203C4.7414 8.30258 5.19659 8.02134 5.71166 7.90928C6.22673 7.79721 6.7676 7.86174 7.23627 8.09116V8.09116ZM6.83855 10.5152C6.92306 10.4388 6.99047 10.3473 7.03684 10.2461C7.08321 10.145 7.10762 10.0362 7.10864 9.92612C7.10966 9.81605 7.08727 9.70688 7.04278 9.605C6.9983 9.50311 6.9326 9.41055 6.84952 9.33271C6.76645 9.25487 6.66766 9.19331 6.55892 9.15163C6.45018 9.10995 6.33367 9.08897 6.21619 9.08993C6.09871 9.09088 5.9826 9.11375 5.87466 9.1572C5.76671 9.20065 5.66908 9.26381 5.58746 9.34299C5.42628 9.49934 5.3371 9.70876 5.33912 9.92612C5.34113 10.1435 5.43419 10.3514 5.59823 10.5051C5.76228 10.6588 5.9842 10.746 6.21619 10.7479C6.44818 10.7498 6.67168 10.6662 6.83855 10.5152Z" fill="#333333"/>
</svg>
