<svg width="25" height="18" viewBox="0 0 25 18" fill="none" xmlns="http://www.w3.org/2000/svg">
<path d="M10.0911 3.90606V2.85079L9.27443 3.51912L5.79248 6.36865H2.13135H1.63135V6.86865V11.1314V11.6314H2.13135H5.79248L9.27443 14.4809L10.0911 15.1492V14.0939V3.90606ZM5.52674 12.8758L5.3886 12.7627H5.2101H1.06568C0.915651 12.7627 0.771768 12.7031 0.665683 12.597C0.559598 12.4909 0.5 12.3471 0.5 12.197V5.80297C0.5 5.65294 0.559598 5.50906 0.665683 5.40297C0.771768 5.29689 0.915651 5.23729 1.06568 5.23729H5.2101H5.3886L5.52674 5.12425L11.1684 0.507737L11.1688 0.507443C11.1736 0.503501 11.1794 0.501003 11.1856 0.500245C11.1918 0.499487 11.198 0.500498 11.2037 0.503161C11.2093 0.505825 11.214 0.51003 11.2174 0.515286L11.6394 0.248378L11.2174 0.515289C11.2207 0.520543 11.2225 0.526637 11.2225 0.532864V0.533194V17.4668V17.4671C11.2225 17.4734 11.2207 17.4795 11.2174 17.4847L11.64 17.7519L11.2174 17.4847C11.214 17.49 11.2093 17.4942 11.2037 17.4968C11.198 17.4995 11.1918 17.5005 11.1856 17.4998C11.1794 17.499 11.1736 17.4965 11.1688 17.4926L11.1684 17.4923L5.52674 12.8758ZM20.3355 8.64645L19.982 9L20.3355 9.35355L23.7502 12.7682L22.9504 13.568L19.5357 10.1533L19.1822 9.79976L18.8286 10.1533L15.414 13.568L14.6142 12.7682L18.0289 9.35355L18.3824 9L18.0289 8.64645L14.6142 5.23177L15.414 4.432L18.8286 7.84669L19.1822 8.20024L19.5357 7.84669L22.9504 4.432L23.7502 5.23177L20.3355 8.64645Z" fill="white" stroke="white"/>
</svg>
