<svg width="17" height="20" viewBox="0 0 17 20" fill="none" xmlns="http://www.w3.org/2000/svg">
<path d="M1.86047 14.8837H14.8837V8.40093C14.8837 4.78884 11.9684 1.86047 8.37209 1.86047C4.77581 1.86047 1.86047 4.78884 1.86047 8.40093V14.8837ZM8.37209 0C12.9953 0 16.7442 3.76093 16.7442 8.40093V16.7442H0V8.40093C0 3.76093 3.74884 0 8.37209 0ZM6.04651 17.6744H10.6977C10.6977 18.2912 10.4527 18.8827 10.0165 19.3189C9.5804 19.755 8.98888 20 8.37209 20C7.75531 20 7.16379 19.755 6.72766 19.3189C6.29153 18.8827 6.04651 18.2912 6.04651 17.6744Z" fill="white"/>
</svg>
