<svg width="111" height="26" viewBox="0 0 111 26" fill="none" xmlns="http://www.w3.org/2000/svg">
<path d="M12.2899 6.76567C12.5583 6.76567 12.8157 6.87051 13.0055 7.05713C13.1953 7.24374 13.3019 7.49685 13.3019 7.76077V9.99265H24.979C25.2479 10.0004 25.5047 10.104 25.7018 10.2841C25.8765 10.4808 25.9716 10.7337 25.9692 10.9949V12.9886C25.9757 13.1187 25.9549 13.2488 25.9082 13.3707C25.8615 13.4926 25.7899 13.6038 25.6977 13.6974C25.6056 13.791 25.4949 13.865 25.3725 13.9149C25.2501 13.9647 25.1187 13.9894 24.9862 13.9873H0.985085C0.85559 13.995 0.726089 13.9723 0.607306 13.921C0.488523 13.8697 0.383874 13.7913 0.302024 13.6923C0.199547 13.6047 0.119125 13.4949 0.0670765 13.3716C0.0150281 13.2483 -0.00722861 13.1147 0.00205503 12.9815V10.9913C-0.000755447 10.8589 0.0244583 10.7273 0.0760967 10.6049C0.127735 10.4826 0.204671 10.3721 0.302024 10.2805C0.388862 10.1877 0.49451 10.1138 0.612159 10.0636C0.729807 10.0135 0.856845 9.98806 0.985085 9.9891H6.68449V7.76077C6.68146 7.62829 6.70657 7.49665 6.75822 7.37426C6.80988 7.25187 6.88693 7.14142 6.98446 7.04998C7.07893 6.95624 7.1916 6.88214 7.31577 6.83208C7.43994 6.78201 7.57308 6.75701 7.70728 6.75856L12.2899 6.76567ZM2.11991 4.89984C1.98487 4.90806 1.84969 4.88612 1.72451 4.83565C1.59933 4.78518 1.48739 4.70749 1.39709 4.60842C1.2957 4.52012 1.21627 4.41013 1.16489 4.2869C1.11351 4.16368 1.09156 4.0305 1.10074 3.89763V1.63021C1.09657 1.48994 1.1206 1.35023 1.17145 1.21911C1.22231 1.08799 1.29899 0.968028 1.39709 0.866111C1.49156 0.772373 1.60423 0.698269 1.7284 0.648205C1.85257 0.598142 1.98571 0.57314 2.11991 0.574688H23.8044C24.0905 0.571476 24.3671 0.6757 24.5778 0.866111C24.7643 1.05806 24.8713 1.31151 24.8778 1.5769V8.40759C24.8759 8.6731 24.7673 8.9271 24.5757 9.11419C24.3841 9.30127 24.125 9.40626 23.855 9.40625H19.4567C19.3181 9.41395 19.1796 9.3915 19.0509 9.34052C18.9222 9.28953 18.8066 9.21126 18.7122 9.11127C18.6006 9.02986 18.512 8.92194 18.4544 8.79762C18.3969 8.6733 18.3724 8.53665 18.3833 8.40048V4.89984H2.11991ZM23.6634 14.627C23.9326 14.6237 24.1954 14.7073 24.4116 14.8651C24.5001 14.943 24.5719 15.0376 24.6228 15.1431C24.6737 15.2487 24.7026 15.3632 24.7079 15.4799V20.4981C24.7021 20.6106 24.6727 20.7208 24.6218 20.8216C24.5708 20.9225 24.4992 21.012 24.4116 21.0845C24.1943 21.2397 23.932 21.3219 23.6634 21.3191H7.37117V21.9055H23.8152C24.0844 21.8899 24.3499 21.9735 24.5597 22.14C24.6511 22.2096 24.7255 22.2983 24.7774 22.3998C24.8293 22.5013 24.8574 22.6129 24.8597 22.7265V24.5034C24.8542 24.6125 24.8264 24.7194 24.7779 24.8177C24.7295 24.916 24.6614 25.0037 24.5778 25.0756C24.3529 25.2087 24.0958 25.2799 23.8333 25.2817H4.31727C3.92214 25.2848 3.52912 25.2248 3.15353 25.104C2.80016 24.9758 2.46776 24.7974 2.16689 24.5745C1.89404 24.372 1.67056 24.1122 1.51274 23.814C1.34918 23.5163 1.26699 23.182 1.27421 22.8437V19.4426C1.27303 19.3242 1.29907 19.2071 1.35038 19.1C1.4017 18.993 1.47697 18.8987 1.57057 18.8242C1.77476 18.6627 2.03154 18.5794 2.29338 18.5897H18.5929V18.0495H2.11991C1.9876 18.056 1.85533 18.036 1.73109 17.9908C1.60685 17.9456 1.49322 17.8761 1.39709 17.7865C1.30246 17.727 1.22532 17.6442 1.17333 17.5463C1.12133 17.4484 1.09631 17.3388 1.10074 17.2285V15.4799C1.09734 15.359 1.12307 15.239 1.17583 15.1296C1.22859 15.0203 1.30688 14.9248 1.40432 14.8509C1.60801 14.6881 1.86483 14.6035 2.12713 14.6128L23.6634 14.627Z" fill="#EB0D2F"/>
<path d="M44.0027 9.96857V10.847H52.68C52.9489 10.8551 53.2058 10.9583 53.4031 11.1375C53.5778 11.3336 53.673 11.5857 53.6706 11.8459V14.2086C53.6771 14.3386 53.6562 14.4685 53.6093 14.5902C53.5624 14.712 53.4904 14.823 53.3978 14.9163C53.3052 15.0097 53.1941 15.0834 53.0712 15.1328C52.9484 15.1823 52.8164 15.2065 52.6836 15.2039H28.6872C28.5572 15.211 28.4273 15.1881 28.308 15.1371C28.1887 15.086 28.0833 15.0082 28.0003 14.9099C27.8982 14.8224 27.8183 14.7129 27.7668 14.5899C27.7154 14.467 27.6938 14.334 27.7038 14.2015V11.8389C27.7001 11.707 27.7245 11.5759 27.7756 11.4539C27.8266 11.3319 27.9032 11.2217 28.0003 11.1304C28.0881 11.0382 28.1945 10.9647 28.3127 10.9147C28.431 10.8648 28.5585 10.8393 28.6872 10.84H37.3645V9.96857H32.1509C31.0663 9.96857 30.2383 9.70645 29.6743 9.17867C29.1102 8.65088 28.8065 7.86097 28.8065 6.75226V1.57358C28.8027 1.43874 28.8303 1.30483 28.8873 1.18205C28.9444 1.05927 29.0293 0.950879 29.1356 0.865143C29.2301 0.771714 29.3428 0.697855 29.467 0.647957C29.5912 0.598059 29.7244 0.573141 29.8587 0.574683H51.5302C51.8077 0.578031 52.0741 0.681441 52.2787 0.865143C52.4619 1.05827 52.5672 1.31003 52.5751 1.57358V6.75226C52.5751 7.86097 52.2787 8.68276 51.711 9.17867C51.0185 9.74174 50.1325 10.0243 49.2344 9.96857H44.0027ZM52.4197 24.4916C52.4195 24.6024 52.3956 24.7121 52.3495 24.8133C52.3034 24.9146 52.2362 25.0053 52.1521 25.0796C51.9335 25.2081 51.684 25.2778 51.429 25.2815H46.9277C46.6713 25.2877 46.419 25.2173 46.2045 25.0796C46.1108 25.0116 46.0348 24.9229 45.9827 24.8207C45.9305 24.7186 45.9037 24.6058 45.9045 24.4916V20.2409H30.0322C29.7628 20.2568 29.4974 20.1705 29.291 20.0001C29.1882 19.9473 29.1027 19.867 29.0444 19.7686C28.9862 19.6702 28.9576 19.5576 28.962 19.4439V16.7519C28.9609 16.635 28.9907 16.5198 29.0483 16.4174C29.1059 16.315 29.1895 16.2289 29.291 16.1674C29.5061 16.0084 29.7701 15.926 30.0394 15.9336H51.4435C51.7037 15.9344 51.957 16.0162 52.1666 16.1674C52.2505 16.241 52.3178 16.331 52.3638 16.4317C52.4099 16.5324 52.4339 16.6415 52.4341 16.7519L52.4197 24.4916ZM35.2856 5.81358H46.0925V4.75093H35.2856V5.81358Z" fill="#EB0D2F"/>
<path d="M64.9301 4.93153L64.692 5.52072C65.6867 5.51951 66.6779 5.63944 67.643 5.8778C68.5267 6.13006 69.3688 6.50774 70.1431 6.99905C70.8533 7.49293 71.4649 8.11282 71.9469 8.82733C72.4014 9.62786 72.6712 10.5181 72.737 11.4341C72.7495 11.6963 72.6761 11.9556 72.5277 12.1732C72.4137 12.3013 72.2703 12.4005 72.1097 12.4626C71.949 12.5247 71.7757 12.5479 71.6042 12.5303H68.3573C68.0156 12.5589 67.6729 12.4869 67.3724 12.3232C67.0877 12.1459 66.8765 11.8736 66.7772 11.5555C66.6405 11.2904 66.4708 11.0433 66.2721 10.8199C66.0196 10.5815 65.7399 10.373 65.4388 10.1985C65.0847 10.0408 64.7147 9.9211 64.3348 9.84145C63.8784 9.79391 63.4176 9.80471 62.964 9.87359L62.2965 11.5055C62.0296 12.1839 61.64 12.5089 61.1638 12.5089H56.9501C56.8023 12.5212 56.6536 12.4981 56.5167 12.4416C56.3798 12.385 56.2587 12.2966 56.1636 12.1839C56.0719 12.099 56.0107 11.9869 55.9892 11.8644C55.9677 11.742 55.9872 11.616 56.0446 11.5055L58.6348 4.93153H57.3253C57.19 4.9407 57.0545 4.91871 56.9293 4.86728C56.8041 4.81586 56.6927 4.7364 56.6038 4.63515C56.5015 4.54712 56.4212 4.43682 56.3692 4.3129C56.3173 4.18898 56.2951 4.05483 56.3043 3.92098V1.36424C56.2988 1.07942 56.4063 0.803811 56.6038 0.596511C56.6975 0.501658 56.8099 0.426761 56.934 0.376412C57.0581 0.326062 57.1912 0.30132 57.3253 0.303701H71.7557C72.0241 0.311498 72.2805 0.415556 72.4772 0.596511C72.663 0.810883 72.7687 1.08193 72.7766 1.36424V3.93526C72.7747 4.2008 72.6673 4.45494 72.4776 4.64271C72.2879 4.83048 72.0312 4.9368 71.7629 4.93867L64.9301 4.93153ZM75.5653 13.6587C76.2388 13.6658 76.9053 13.7953 77.5315 14.0408C78.1275 14.3255 78.6791 14.6935 79.1693 15.1335C79.6133 15.6072 79.9852 16.1425 80.2732 16.7225C80.5209 17.3424 80.6518 18.002 80.6592 18.6686V20.2612C80.6549 20.9374 80.524 21.6069 80.2732 22.2359C79.9862 22.8175 79.6142 23.3541 79.1693 23.8285C78.686 24.2715 78.1327 24.6334 77.5315 24.8997C76.9053 25.1452 76.2388 25.2747 75.5653 25.2818H62.2172C61.5431 25.2803 60.8756 25.1506 60.251 24.8997C59.6508 24.6471 59.1048 24.2835 58.642 23.8285C58.174 23.3773 57.8055 22.835 57.5598 22.2359C57.2696 21.618 57.1264 20.9424 57.1413 20.2612V18.6686C57.1298 17.9969 57.2729 17.3314 57.5598 16.7225C57.8065 16.1249 58.1749 15.584 58.642 15.1335C59.1118 14.6815 59.6559 14.312 60.251 14.0408C60.8756 13.7899 61.5431 13.6602 62.2172 13.6587H75.5653ZM64.1869 18.4044C63.5304 18.4044 63.2345 18.7007 63.2345 19.2614V19.7327C63.2345 20.2933 63.5304 20.5576 64.1869 20.5576H73.5992C73.861 20.5709 74.1183 20.4869 74.3207 20.3219C74.4078 20.2503 74.4774 20.1601 74.5242 20.058C74.5711 19.956 74.594 19.8448 74.5913 19.7327V19.2614C74.5949 19.1403 74.5727 19.0198 74.5261 18.9078C74.4794 18.7958 74.4095 18.6948 74.3207 18.6115C74.107 18.4716 73.8553 18.3993 73.5992 18.4044H64.1869ZM79.6455 0.00732008C79.9149 0.0137583 80.1722 0.119442 80.367 0.303701C80.5532 0.496558 80.66 0.751218 80.6665 1.01787V3.48533H82.6615C82.9309 3.49177 83.1881 3.59745 83.383 3.78171C83.568 3.99514 83.6737 4.26479 83.6824 4.54587V7.8632C83.6805 8.12874 83.5731 8.38288 83.3834 8.57065C83.1937 8.75842 82.937 8.86474 82.6687 8.86661H80.6592V11.784C80.6583 12.0498 80.5512 12.3045 80.3613 12.4925C80.1714 12.6804 79.9141 12.7865 79.6455 12.7874H75.1793C74.9107 12.7865 74.6534 12.6804 74.4635 12.4925C74.2736 12.3045 74.1665 12.0498 74.1656 11.784V1.01073C74.1619 0.877532 74.1866 0.745062 74.2382 0.621991C74.2898 0.49892 74.3671 0.388023 74.465 0.296559C74.5581 0.200545 74.6702 0.124646 74.7944 0.0736379C74.9186 0.0226301 75.0521 -0.0023812 75.1865 0.000178373L79.6455 0.00732008Z" fill="#EB0D2F"/>
<path d="M100.013 0.876447C100.284 0.882925 100.542 0.989266 100.738 1.17467C100.924 1.38943 101.03 1.66076 101.039 1.94359V4.91147C101.042 5.04535 101.016 5.17831 100.965 5.30198C100.913 5.42566 100.836 5.53737 100.738 5.63009C100.645 5.72759 100.533 5.80456 100.408 5.85595C100.283 5.90734 100.148 5.932 100.013 5.92831H91.1851V9.7765H99.4149C99.6856 9.78297 99.9442 9.88932 100.14 10.0747C100.326 10.2895 100.432 10.5608 100.441 10.8436V13.8115C100.443 13.9454 100.418 14.0784 100.366 14.202C100.315 14.3257 100.237 14.4374 100.14 14.5301C100.047 14.6273 99.9342 14.704 99.8093 14.7554C99.6844 14.8067 99.5501 14.8316 99.4149 14.8284H91.1851V19.9305H100.611C100.882 19.936 101.14 20.0411 101.336 20.2252C101.522 20.4413 101.628 20.7138 101.637 20.9977V23.9656C101.635 24.2324 101.527 24.4878 101.337 24.6761C101.146 24.8645 100.888 24.9707 100.619 24.9716H89.985C86.5445 24.9716 84.8369 23.2829 84.8369 19.9413V1.8861C84.8325 1.74925 84.8599 1.61323 84.9172 1.48861C84.9744 1.36398 85.0598 1.2541 85.1668 1.16749C85.2608 1.07139 85.3735 0.995365 85.4982 0.944078C85.6229 0.892791 85.7569 0.86733 85.8919 0.86926L100.013 0.876447ZM103.697 8.82792V1.58788C103.694 1.45429 103.719 1.32155 103.77 1.19792C103.821 1.07429 103.897 0.962417 103.994 0.86926C104.082 0.77569 104.189 0.701206 104.307 0.650499C104.426 0.599791 104.554 0.573959 104.683 0.574628H109.204C109.473 0.582474 109.731 0.68718 109.929 0.86926C110.116 1.06332 110.223 1.31956 110.23 1.58788V24.8459C110.227 25.1223 110.119 25.3877 109.929 25.5896C109.728 25.7633 109.47 25.8579 109.204 25.8555H104.683C104.556 25.8612 104.429 25.8405 104.31 25.7947C104.191 25.7489 104.084 25.6791 103.994 25.5896C103.895 25.4928 103.818 25.3767 103.766 25.2486C103.715 25.1206 103.692 24.9835 103.697 24.8459V14.523H101.811C101.676 14.5253 101.542 14.501 101.416 14.4513C101.291 14.4015 101.177 14.3275 101.08 14.2335C100.984 14.1394 100.908 14.0273 100.856 13.9036C100.804 13.7799 100.778 13.6472 100.778 13.5133V9.89507C100.774 9.60943 100.881 9.33312 101.075 9.12256C101.17 9.02779 101.283 8.95287 101.408 8.90225C101.532 8.85164 101.666 8.82636 101.8 8.82792H103.697Z" fill="#EB0D2F"/>
</svg>
