<svg width="43" height="17" viewBox="0 0 43 17" fill="none" xmlns="http://www.w3.org/2000/svg">
<rect width="43" height="16.5783" rx="8.28916" fill="#EEEEEE"/>
<path d="M10.8059 5.97313C11.4369 5.97313 11.8866 6.31403 11.8866 6.82174C11.8866 7.32945 11.4369 7.67034 10.8059 7.67034C10.1676 7.67034 9.71791 7.32945 9.71791 6.82174C9.71791 6.31403 10.1676 5.97313 10.8059 5.97313ZM10.8059 8.15629C11.7705 8.15629 12.4595 7.61231 12.4595 6.82174C12.4595 6.0239 11.7705 5.47993 10.8059 5.47993C9.83395 5.47993 9.14492 6.0239 9.14492 6.82174C9.14492 7.61231 9.83395 8.15629 10.8059 8.15629ZM12.9455 8.47542C11.5167 8.69301 9.87022 8.70752 8.65897 8.70752L8.73875 9.20798C9.27547 9.20798 9.89198 9.20072 10.5375 9.17171V11.4782H11.1322V9.13545C11.7487 9.09918 12.3798 9.02665 12.9963 8.91786L12.9455 8.47542ZM13.4169 5.18256V11.6885H14.0117V5.18256H13.4169ZM17.7392 6.77822H19.226V6.29952H17.7464V5.29135H17.1444V6.29952H15.6431V6.77822H17.1517V7.27868C17.1517 8.4174 16.4336 9.5126 15.469 9.96954L15.8026 10.4192C16.5497 10.0566 17.1662 9.31677 17.4563 8.41015C17.7537 9.266 18.3702 9.96954 19.1172 10.3104L19.4436 9.84624C18.479 9.42557 17.7392 8.36663 17.7392 7.27868V6.77822ZM20.0746 5.16805V11.674H20.6766V5.16805H20.0746ZM23.3017 7.28593H26.6235V8.48268H23.3017V7.28593ZM25.26 10.3612V8.96137H27.2038V5.63949H26.6235V6.79998H23.3017V5.63949H22.7142V8.96137H24.658V10.3612H22.0179V10.8472H27.9146V10.3612H25.26ZM29.0745 5.87884V6.35754H31.5188C31.3955 7.90243 30.5251 9.14995 28.7771 9.98405L29.0963 10.47C31.2577 9.41106 32.1208 7.75737 32.1208 5.87884H29.0745ZM33.4336 5.1753V11.6813H34.0283V5.1753H33.4336Z" fill="#666666"/>
</svg>
