<svg width="8" height="9" viewBox="0 0 8 9" fill="none" xmlns="http://www.w3.org/2000/svg">
<path fill-rule="evenodd" clip-rule="evenodd" d="M3.68182 0.736298C2.90064 0.736298 2.15145 1.04659 1.59907 1.59892C1.04669 2.15126 0.736365 2.90038 0.736365 3.68149C0.736365 4.82204 1.47852 5.92876 2.29229 6.78766C2.69164 7.20916 3.09224 7.55422 3.39342 7.79403C3.50551 7.88327 3.60341 7.95761 3.68182 8.01555C3.76024 7.95761 3.85814 7.88327 3.97023 7.79403C4.27141 7.55422 4.67201 7.20916 5.07136 6.78766C5.88512 5.92876 6.62728 4.82204 6.62728 3.68149C6.62728 2.90038 6.31696 2.15126 5.76458 1.59892C5.2122 1.04659 4.46301 0.736298 3.68182 0.736298ZM3.68182 8.46743C3.47759 8.77375 3.4775 8.77368 3.47739 8.77361L3.47634 8.77291L3.47389 8.77126L3.46545 8.76556C3.45828 8.76069 3.44806 8.7537 3.43498 8.74464C3.40883 8.72653 3.37125 8.70014 3.32387 8.66593C3.22916 8.59753 3.09507 8.4977 2.93472 8.37002C2.61459 8.11512 2.18678 7.7469 1.75772 7.29404C0.914662 6.40423 0 5.11799 0 3.68149C2.19454e-08 2.7051 0.387905 1.7687 1.07838 1.07828C1.76886 0.38787 2.70534 0 3.68182 0C4.6583 0 5.59479 0.38787 6.28527 1.07828C6.97574 1.7687 7.36365 2.7051 7.36365 3.68149C7.36365 5.11799 6.44899 6.40423 5.60593 7.29404C5.17687 7.7469 4.74906 8.11512 4.42893 8.37002C4.26857 8.4977 4.13449 8.59753 4.03977 8.66593C3.9924 8.70014 3.95482 8.72653 3.92867 8.74464C3.91559 8.7537 3.90537 8.76069 3.8982 8.76556L3.88976 8.77126L3.88731 8.77291L3.88653 8.77343C3.88642 8.7735 3.88605 8.77375 3.68182 8.46743ZM3.68182 8.46743L3.88605 8.77375C3.76238 8.85619 3.60107 8.85605 3.47739 8.77361L3.68182 8.46743Z" fill="#9E9E9E"/>
<path fill-rule="evenodd" clip-rule="evenodd" d="M3.68185 3.0121C3.34295 3.0121 3.06822 3.28182 3.06822 3.61453C3.06822 3.94725 3.34295 4.21696 3.68185 4.21696C4.02075 4.21696 4.29549 3.94725 4.29549 3.61453C4.29549 3.28182 4.02075 3.0121 3.68185 3.0121ZM2.45459 3.61453C2.45459 2.9491 3.00405 2.40967 3.68185 2.40967C4.35965 2.40967 4.90912 2.9491 4.90912 3.61453C4.90912 4.27996 4.35965 4.8194 3.68185 4.8194C3.00405 4.8194 2.45459 4.27996 2.45459 3.61453Z" fill="#9E9E9E"/>
</svg>
