<svg width="10" height="10" viewBox="0 0 10 10" fill="none" xmlns="http://www.w3.org/2000/svg">
<path fill-rule="evenodd" clip-rule="evenodd" d="M5.4716 0.278745C5.37204 0.105778 5.19308 0 5 0C4.80692 0 4.62796 0.105778 4.5284 0.278745L3.10864 2.74532L0.426237 3.39487C0.238135 3.44042 0.0866134 3.58568 0.0269482 3.77768C-0.032717 3.96967 0.00819891 4.18031 0.13477 4.33276L1.93972 6.50673L1.70166 9.37475C1.68496 9.57587 1.77028 9.77143 1.92648 9.89009C2.08269 10.0087 2.28694 10.0332 2.46473 9.9544L5 8.83141L7.53527 9.9544C7.71306 10.0332 7.91731 10.0087 8.07351 9.89009C8.22972 9.77143 8.31504 9.57587 8.29834 9.37475L8.06028 6.50673L9.86523 4.33276C9.9918 4.18031 10.0327 3.96967 9.97305 3.77768C9.91339 3.58568 9.76186 3.44042 9.57376 3.39487L6.89136 2.74532L5.4716 0.278745Z" fill="#FF3C58"/>
</svg>
