<svg width="14" height="14" viewBox="0 0 14 14" fill="none" xmlns="http://www.w3.org/2000/svg">
<path fill-rule="evenodd" clip-rule="evenodd" d="M5.86648 0.377908C5.97011 0.148102 6.20134 0 6.45651 0C7.14148 0 7.7984 0.268178 8.28275 0.745539C8.7671 1.2229 9.03921 1.87034 9.03921 2.54543V4.4545H12.0448C12.3242 4.45195 12.6009 4.50902 12.8558 4.62179C13.112 4.73511 13.3401 4.90197 13.5244 5.1108C13.7086 5.31963 13.8446 5.56545 13.9229 5.83122C14.0012 6.097 14.0199 6.37637 13.9778 6.64998L13.0868 12.3771C13.0867 12.3773 13.0868 12.3769 13.0868 12.3771C13.0166 12.8321 12.782 13.2474 12.4261 13.5455C12.0712 13.8428 11.6194 14.0041 11.1537 13.9999H1.93678C1.42305 13.9999 0.93036 13.7987 0.567097 13.4407C0.203835 13.0827 -0.000244141 12.5971 -0.000244141 12.0908V7.63629C-0.000244141 7.12997 0.203835 6.64439 0.567097 6.28637C0.93036 5.92835 1.42305 5.72722 1.93678 5.72722H3.4542L5.86648 0.377908ZM4.51948 6.49862L6.84897 1.33291C7.04356 1.3941 7.22252 1.50049 7.36963 1.64548C7.61181 1.88416 7.74786 2.20788 7.74786 2.54543V5.09086C7.74786 5.44231 8.03694 5.72722 8.39353 5.72722H12.0481L12.0554 5.72718C12.149 5.72613 12.2417 5.74515 12.3271 5.78293C12.4124 5.8207 12.4885 5.87632 12.5499 5.94593C12.6113 6.01554 12.6567 6.09748 12.6827 6.18607C12.7088 6.27458 12.7151 6.36761 12.7011 6.45873C12.7011 6.45865 12.7011 6.45882 12.7011 6.45873L11.81 12.1863C11.7866 12.338 11.7084 12.4763 11.5898 12.5757C11.4711 12.6751 11.32 12.7289 11.1643 12.7272L4.51948 12.7271V6.49862ZM3.22813 12.7271V6.99993H1.93678C1.76554 6.99993 1.60131 7.06698 1.48022 7.18632C1.35913 7.30566 1.29111 7.46752 1.29111 7.63629V12.0908C1.29111 12.2596 1.35913 12.4214 1.48022 12.5408C1.60131 12.6601 1.76554 12.7271 1.93678 12.7271H3.22813Z" fill="#EB0D2F"/>
</svg>
