<svg width="14" height="14" viewBox="0 0 14 14" fill="none" xmlns="http://www.w3.org/2000/svg">
<path d="M9.8875 9.30396C10.4585 8.73288 10.8474 8.0053 11.0049 7.21322C11.1624 6.42114 11.0815 5.60014 10.7725 4.85403C10.4634 4.10793 9.94003 3.47022 9.26854 3.02156C8.59705 2.57289 7.80759 2.33342 7 2.33342C6.19241 2.33342 5.40296 2.57289 4.73147 3.02156C4.05998 3.47022 3.5366 4.10793 3.22753 4.85403C2.91846 5.60014 2.83758 6.42114 2.9951 7.21322C3.15262 8.0053 3.54148 8.73288 4.1125 9.30396L7 12.1915L9.8875 9.30396ZM7 13.8411L3.28767 10.1288C2.55345 9.39456 2.05344 8.4591 1.85087 7.4407C1.64831 6.42231 1.75228 5.36671 2.14964 4.4074C2.547 3.44809 3.21991 2.62816 4.08327 2.05128C4.94662 1.47441 5.96165 1.1665 7 1.1665C8.03835 1.1665 9.05338 1.47441 9.91674 2.05128C10.7801 2.62816 11.453 3.44809 11.8504 4.4074C12.2477 5.36671 12.3517 6.42231 12.1491 7.4407C11.9466 8.4591 11.4466 9.39456 10.7123 10.1288L7 13.8411ZM7.58334 6.41646H9.91667V7.58312H6.41667V3.49979H7.58334V6.41646Z" fill="black"/>
</svg>
