<svg width="20" height="20" viewBox="0 0 20 20" fill="none" xmlns="http://www.w3.org/2000/svg">
<path fill-rule="evenodd" clip-rule="evenodd" d="M10 1.81818C5.48131 1.81818 1.81818 5.48131 1.81818 10C1.81818 14.5187 5.48131 18.1818 10 18.1818C14.5187 18.1818 18.1818 14.5187 18.1818 10C18.1818 5.48131 14.5187 1.81818 10 1.81818ZM0 10C0 4.47715 4.47715 0 10 0C15.5228 0 20 4.47715 20 10C20 15.5228 15.5228 20 10 20C4.47715 20 0 15.5228 0 10Z" fill="#9E9E9E"/>
<path fill-rule="evenodd" clip-rule="evenodd" d="M7.08815 11.269C6.78617 10.8706 6.21868 10.7906 5.81828 11.0909C5.41662 11.3922 5.33522 11.962 5.63646 12.3637L6.36373 11.8182C5.63646 12.3637 5.63668 12.3639 5.6369 12.3642L5.63738 12.3649L5.63843 12.3663L5.64092 12.3696L5.64747 12.3781L5.66683 12.4029C5.68251 12.4227 5.70374 12.449 5.73043 12.4808C5.78374 12.5443 5.85919 12.6303 5.95596 12.7313C6.14876 12.9325 6.43049 13.1975 6.79494 13.4625C7.52034 13.9901 8.61325 14.5455 10.0001 14.5455C11.3869 14.5455 12.4799 13.9901 13.2053 13.4625C13.5697 13.1975 13.8514 12.9325 14.0442 12.7313C14.141 12.6303 14.2165 12.5443 14.2698 12.4808C14.2965 12.449 14.3177 12.4227 14.3334 12.4029L14.3527 12.3781L14.3593 12.3696L14.3618 12.3663L14.3628 12.3649L14.3633 12.3642C14.3635 12.3639 14.3637 12.3637 13.6365 11.8182L14.3637 12.3637C14.665 11.962 14.5836 11.3922 14.1819 11.0909C13.7815 10.7906 13.214 10.8706 12.912 11.269L12.9078 11.2743C12.9024 11.2812 12.8921 11.294 12.8771 11.3119C12.847 11.3478 12.7981 11.4038 12.7315 11.4733C12.5976 11.613 12.3964 11.8026 12.1359 11.9921C11.6112 12.3736 10.886 12.7273 10.0001 12.7273C9.11422 12.7273 8.38895 12.3736 7.86435 11.9921C7.6038 11.8026 7.40258 11.613 7.26867 11.4733C7.20209 11.4038 7.15325 11.3478 7.12311 11.3119C7.10807 11.294 7.09778 11.2812 7.09237 11.2743L7.08815 11.269Z" fill="#9E9E9E"/>
<path fill-rule="evenodd" clip-rule="evenodd" d="M6.36353 7.27274C6.36353 6.77066 6.77054 6.36365 7.27262 6.36365H7.28171C7.78378 6.36365 8.1908 6.77066 8.1908 7.27274C8.1908 7.77482 7.78378 8.18183 7.28171 8.18183H7.27262C6.77054 8.18183 6.36353 7.77482 6.36353 7.27274Z" fill="#9E9E9E"/>
<path fill-rule="evenodd" clip-rule="evenodd" d="M11.8181 7.27274C11.8181 6.77066 12.2251 6.36365 12.7272 6.36365H12.7363C13.2384 6.36365 13.6454 6.77066 13.6454 7.27274C13.6454 7.77482 13.2384 8.18183 12.7363 8.18183H12.7272C12.2251 8.18183 11.8181 7.77482 11.8181 7.27274Z" fill="#9E9E9E"/>
</svg>
