<svg width="44" height="44" viewBox="0 0 44 44" fill="none" xmlns="http://www.w3.org/2000/svg">
<path d="M22.0003 40.3334C11.8748 40.3334 3.66699 32.1256 3.66699 22.0001C3.66699 11.8746 11.8748 3.66675 22.0003 3.66675C32.1258 3.66675 40.3337 11.8746 40.3337 22.0001C40.3337 32.1256 32.1258 40.3334 22.0003 40.3334ZM12.8337 23.8334C12.8337 26.2646 13.7994 28.5961 15.5185 30.3152C17.2376 32.0343 19.5692 33.0001 22.0003 33.0001C24.4315 33.0001 26.7631 32.0343 28.4821 30.3152C30.2012 28.5961 31.167 26.2646 31.167 23.8334H27.5003C27.5003 25.2921 26.9209 26.6911 25.8894 27.7225C24.858 28.754 23.459 29.3334 22.0003 29.3334C20.5416 29.3334 19.1427 28.754 18.1112 27.7225C17.0798 26.6911 16.5003 25.2921 16.5003 23.8334H12.8337ZM14.667 20.1667C15.3963 20.1667 16.0958 19.877 16.6115 19.3613C17.1273 18.8456 17.417 18.1461 17.417 17.4167C17.417 16.6874 17.1273 15.9879 16.6115 15.4722C16.0958 14.9565 15.3963 14.6667 14.667 14.6667C13.9376 14.6667 13.2382 14.9565 12.7224 15.4722C12.2067 15.9879 11.917 16.6874 11.917 17.4167C11.917 18.1461 12.2067 18.8456 12.7224 19.3613C13.2382 19.877 13.9376 20.1667 14.667 20.1667ZM29.3337 20.1667C30.063 20.1667 30.7625 19.877 31.2782 19.3613C31.7939 18.8456 32.0837 18.1461 32.0837 17.4167C32.0837 16.6874 31.7939 15.9879 31.2782 15.4722C30.7625 14.9565 30.063 14.6667 29.3337 14.6667C28.6043 14.6667 27.9048 14.9565 27.3891 15.4722C26.8734 15.9879 26.5837 16.6874 26.5837 17.4167C26.5837 18.1461 26.8734 18.8456 27.3891 19.3613C27.9048 19.877 28.6043 20.1667 29.3337 20.1667Z" fill="white"/>
</svg>
