<svg width="16" height="16" viewBox="0 0 16 16" fill="none" xmlns="http://www.w3.org/2000/svg">
<path d="M14.0001 8.82804V13.3334H14.6667V14.6667H1.33342V13.3334H2.00008V8.82804C1.58966 8.5541 1.25322 8.18307 1.02063 7.74788C0.788033 7.3127 0.666476 6.82682 0.666749 6.33337C0.666749 5.78204 0.816082 5.25071 1.08875 4.79804L2.89675 1.66671C2.95526 1.56536 3.03942 1.48121 3.14076 1.42269C3.2421 1.36418 3.35706 1.33338 3.47408 1.33337H12.5268C12.6438 1.33338 12.7587 1.36418 12.8601 1.42269C12.9614 1.48121 13.0456 1.56536 13.1041 1.66671L14.9054 4.78804C15.3031 5.44862 15.431 6.23706 15.2624 6.98947C15.0937 7.74187 14.6417 8.40036 14.0001 8.82804V8.82804ZM12.6667 9.31471C12.2084 9.36613 11.7443 9.31107 11.3107 9.15381C10.8771 8.99655 10.4856 8.74134 10.1667 8.40804C9.88689 8.70076 9.55061 8.93372 9.17822 9.09287C8.80584 9.25203 8.40506 9.33407 8.00008 9.33404C7.59521 9.33424 7.19448 9.25241 6.8221 9.09349C6.44972 8.93457 6.11339 8.70185 5.83342 8.40937C5.5145 8.74255 5.123 8.99764 4.68938 9.15478C4.25577 9.31192 3.79174 9.36688 3.33342 9.31537V13.3334H12.6667V9.31537V9.31471ZM3.85942 2.66671L2.23742 5.47537C2.0798 5.8648 2.07507 6.29939 2.22417 6.69216C2.37327 7.08493 2.6652 7.4069 3.04154 7.59364C3.41787 7.78037 3.85084 7.81809 4.2538 7.69925C4.65676 7.58041 4.99997 7.31377 5.21475 6.95271C5.43808 6.39471 6.22808 6.39471 6.45208 6.95271C6.57561 7.26232 6.78915 7.52777 7.0651 7.71478C7.34105 7.90178 7.66674 8.00174 8.00008 8.00174C8.33343 8.00174 8.65912 7.90178 8.93507 7.71478C9.21102 7.52777 9.42455 7.26232 9.54808 6.95271C9.77142 6.39471 10.5614 6.39471 10.7854 6.95271C10.8719 7.16567 11.0016 7.35844 11.1662 7.51889C11.3308 7.67934 11.5268 7.80401 11.7419 7.88505C11.957 7.9661 12.1866 8.00177 12.4161 7.98983C12.6457 7.97789 12.8703 7.91859 13.0758 7.81566C13.2814 7.71273 13.4634 7.56839 13.6104 7.39173C13.7575 7.21506 13.8664 7.00988 13.9304 6.78909C13.9943 6.5683 14.0119 6.33666 13.9821 6.10874C13.9522 5.88082 13.8755 5.66155 13.7567 5.46471L12.1401 2.66671H3.86008H3.85942Z" fill="#333333"/>
</svg>
